<svg xmlns="http://www.w3.org/2000/svg" viewBox="0 0 22.5301 20.0025" fill="none">
<path id="Icon" d="M12.27 15.5025C12.27 16.0525 11.82 16.5025 11.27 16.5025C10.72 16.5025 10.27 16.0525 10.27 15.5025C10.27 14.9525 10.71 14.5025 11.27 14.5025C11.82 14.5025 12.27 14.9525 12.27 15.5025ZM11.26 12.5025C11.81 12.5025 12.26 12.0525 12.26 11.5025V7.5025C12.26 6.9525 11.81 6.5025 11.26 6.5025C10.71 6.5025 10.26 6.9525 10.26 7.5025V11.5025C10.26 12.0525 10.71 12.5025 11.26 12.5025ZM22.52 18.2125C22.46 18.7725 22.16 19.2925 21.71 19.6225C21.18 20.0025 20.58 20.0025 19.49 20.0025H3.04004C1.95004 20.0025 1.35004 20.0025 0.820036 19.6225C0.360036 19.2925 0.0600364 18.7725 0.0100364 18.2125C-0.0599636 17.5625 0.240036 17.0425 0.790036 16.1025L9.01004 1.8925C9.55004 0.9525 9.85004 0.4325 10.45 0.1725C10.97 -0.0575 11.56 -0.0575 12.08 0.1725C12.67 0.4325 12.97 0.9525 13.52 1.8925L21.74 16.1025C22.29 17.0425 22.59 17.5625 22.52 18.2125ZM20.49 17.9825C20.4 17.7925 20.2 17.4425 20.01 17.1025L11.78 2.9025C11.59 2.5625 11.39 2.2225 11.26 2.0525C11.14 2.2225 10.94 2.5725 10.74 2.9025L2.52004 17.1025C2.32004 17.4425 2.12004 17.7825 2.04004 17.9825C2.25004 18.0025 2.65004 18.0025 3.04004 18.0025H19.49C19.88 18.0025 20.28 18.0025 20.49 17.9825Z" fill="currentColor"/>
</svg>
