<svg xmlns="http://www.w3.org/2000/svg" viewBox="0 0 20 20" fill="none">
<path id="Icon" fill-rule="evenodd" clip-rule="evenodd" d="M1 0C1.55229 0 2 0.447715 2 1V15.8C2 16.3766 2.00078 16.7488 2.02393 17.0322C2.04612 17.3038 2.0838 17.4045 2.10899 17.454C2.20487 17.6422 2.35785 17.7951 2.54601 17.891C2.59546 17.9162 2.69617 17.9539 2.96784 17.9761C3.25117 17.9992 3.62345 18 4.2 18H19C19.5523 18 20 18.4477 20 19C20 19.5523 19.5523 20 19 20H4.16144C3.6343 20 3.17954 20 2.80497 19.9694C2.40963 19.9371 2.01641 19.8658 1.63803 19.673C1.07355 19.3854 0.614603 18.9265 0.326983 18.362C0.134188 17.9836 0.0628723 17.5904 0.0305712 17.195C-3.25181e-05 16.8205 -1.70213e-05 16.3657 8.6011e-07 15.8385L1.81378e-06 1C1.81378e-06 0.447715 0.447717 0 1 0ZM18.5 2.5C19.0523 2.5 19.5 2.94772 19.5 3.5V15.5C19.5 16.0523 19.0523 16.5 18.5 16.5C17.9477 16.5 17.5 16.0523 17.5 15.5V3.5C17.5 2.94772 17.9477 2.5 18.5 2.5ZM14 5.5C14.5523 5.5 15 5.94772 15 6.5V15.5C15 16.0523 14.5523 16.5 14 16.5C13.4477 16.5 13 16.0523 13 15.5V6.5C13 5.94772 13.4477 5.5 14 5.5ZM9.5 8.5C10.0523 8.5 10.5 8.94772 10.5 9.5V15.5C10.5 16.0523 10.0523 16.5 9.5 16.5C8.94772 16.5 8.5 16.0523 8.5 15.5V9.5C8.5 8.94772 8.94772 8.5 9.5 8.5ZM5 11.5C5.55229 11.5 6 11.9477 6 12.5V15.5C6 16.0523 5.55229 16.5 5 16.5C4.44772 16.5 4 16.0523 4 15.5V12.5C4 11.9477 4.44772 11.5 5 11.5Z" fill="currentColor"/>
</svg>
