<svg xmlns="http://www.w3.org/2000/svg" viewBox="0 0 22 22" fill="none">
<path id="Icon" fill-rule="evenodd" clip-rule="evenodd" d="M11 2C6.02944 2 2 6.02944 2 11C2 15.9706 6.02944 20 11 20C15.9706 20 20 15.9706 20 11C20 6.02944 15.9706 2 11 2ZM0 11C0 4.92487 4.92487 0 11 0C17.0751 0 22 4.92487 22 11C22 17.0751 17.0751 22 11 22C4.92487 22 0 17.0751 0 11ZM11 3.5C11.5523 3.5 12 3.94772 12 4.5V5H12.1667C14.0076 5 15.5 6.49238 15.5 8.33333C15.5 8.88562 15.0523 9.33333 14.5 9.33333C13.9477 9.33333 13.5 8.88562 13.5 8.33333C13.5 7.59695 12.903 7 12.1667 7H10C9.17157 7 8.5 7.67157 8.5 8.5C8.5 9.32843 9.17157 10 10 10H12C13.933 10 15.5 11.567 15.5 13.5C15.5 15.433 13.933 17 12 17V17.5C12 18.0523 11.5523 18.5 11 18.5C10.4477 18.5 10 18.0523 10 17.5V17H9.83333C7.99238 17 6.5 15.5076 6.5 13.6667C6.5 13.1144 6.94772 12.6667 7.5 12.6667C8.05228 12.6667 8.5 13.1144 8.5 13.6667C8.5 14.403 9.09695 15 9.83333 15H12C12.8284 15 13.5 14.3284 13.5 13.5C13.5 12.6716 12.8284 12 12 12H10C8.067 12 6.5 10.433 6.5 8.5C6.5 6.567 8.067 5 10 5V4.5C10 3.94772 10.4477 3.5 11 3.5Z" fill="currentColor"/>
</svg>
