<svg xmlns="http://www.w3.org/2000/svg" viewBox="0 0 20 22" fill="none">
<path id="Icon" fill-rule="evenodd" clip-rule="evenodd" d="M17 2C16.4477 2 16 2.44772 16 3C16 3.55228 16.4477 4 17 4C17.5523 4 18 3.55228 18 3C18 2.44772 17.5523 2 17 2ZM14.1705 2.00072C14.5821 0.835153 15.6935 0 17 0C18.6569 0 20 1.34315 20 3C20 4.65685 18.6569 6 17 6C15.6941 6 14.5831 5.16559 14.171 4.00083C13.6425 4.00297 13.2412 4.01058 12.911 4.03755C12.4726 4.07337 12.2484 4.1383 12.092 4.21799C11.7157 4.40973 11.4097 4.71569 11.218 5.09202C11.1383 5.24842 11.0734 5.47262 11.0376 5.91104C11.0008 6.36113 11 6.94342 11 7.8V10H14.1707C14.5825 8.83481 15.6938 8 17 8C18.6569 8 20 9.34315 20 11C20 12.6569 18.6569 14 17 14C15.6938 14 14.5825 13.1652 14.1707 12H11V14.2C11 15.0566 11.0008 15.6389 11.0376 16.089C11.0734 16.5274 11.1383 16.7516 11.218 16.908C11.4097 17.2843 11.7157 17.5903 12.092 17.782C12.2484 17.8617 12.4726 17.9266 12.911 17.9624C13.2412 17.9894 13.6425 17.997 14.171 17.9992C14.5831 16.8344 15.6941 16 17 16C18.6569 16 20 17.3431 20 19C20 20.6569 18.6569 22 17 22C15.6935 22 14.5821 21.1648 14.1705 19.9993C13.6232 19.9971 13.1515 19.9888 12.7482 19.9558C12.1861 19.9099 11.6694 19.8113 11.184 19.564C10.4314 19.1805 9.81947 18.5686 9.43597 17.816C9.18868 17.3306 9.09012 16.8139 9.04419 16.2518C8.99998 15.7106 8.99999 15.0463 9 14.2413V12H5.82929C5.41746 13.1652 4.30622 14 3 14C1.34315 14 0 12.6569 0 11C0 9.34315 1.34315 8 3 8C4.30622 8 5.41746 8.83481 5.82929 10H9V7.7587C8.99999 6.95373 8.99998 6.28937 9.04419 5.74817C9.09012 5.18608 9.18868 4.66937 9.43597 4.18404C9.81947 3.43139 10.4314 2.81947 11.184 2.43597C11.6694 2.18868 12.1861 2.09012 12.7482 2.04419C13.1515 2.01124 13.6231 2.00285 14.1705 2.00072ZM3 10C2.44772 10 2 10.4477 2 11C2 11.5523 2.44772 12 3 12C3.55228 12 4 11.5523 4 11C4 10.4477 3.55228 10 3 10ZM17 10C16.4477 10 16 10.4477 16 11C16 11.5523 16.4477 12 17 12C17.5523 12 18 11.5523 18 11C18 10.4477 17.5523 10 17 10ZM17 18C16.4477 18 16 18.4477 16 19C16 19.5523 16.4477 20 17 20C17.5523 20 18 19.5523 18 19C18 18.4477 17.5523 18 17 18Z" fill="currentColor"/>
</svg>
