<svg xmlns="http://www.w3.org/2000/svg" viewBox="0 0 21.3285 21.3284" fill="none">
<path id="Icon" fill-rule="evenodd" clip-rule="evenodd" d="M14.7929 1.12132C16.288 -0.373774 18.712 -0.373772 20.2071 1.12132C21.7022 2.61642 21.7022 5.04044 20.2071 6.53554L17.2098 9.53291C17.2089 9.53378 17.208 9.53466 17.2071 9.53554C17.2063 9.53641 17.2054 9.53728 17.2045 9.53816L7.00084 19.7418C6.98408 19.7586 6.96747 19.7752 6.95099 19.7917C6.70609 20.037 6.49007 20.2534 6.2334 20.4226C6.00774 20.5714 5.76301 20.6891 5.50584 20.7723C5.21333 20.867 4.90942 20.9005 4.56489 20.9385C4.54171 20.9411 4.51836 20.9437 4.49481 20.9463L1.11044 21.3223C0.808512 21.3559 0.507707 21.2503 0.2929 21.0355C0.0780922 20.8207 -0.0274244 20.5199 0.00612291 20.218L0.382163 16.8336C0.384781 16.8101 0.387359 16.7867 0.389916 16.7635C0.427918 16.419 0.46144 16.1151 0.556131 15.8226C0.639383 15.5654 0.757009 15.3207 0.905816 15.095C1.07507 14.8384 1.29144 14.6223 1.53673 14.3774C1.55323 14.361 1.56987 14.3444 1.58663 14.3276L14.7929 1.12132ZM12.5 6.24264L3.00084 15.7418C2.67834 16.0643 2.61846 16.1309 2.57547 16.1961C2.52587 16.2713 2.48666 16.3529 2.45891 16.4386C2.43486 16.5129 2.4203 16.6012 2.36993 17.0545L2.13193 19.1965L4.27394 18.9585C4.72724 18.9081 4.81556 18.8936 4.88986 18.8695C4.97559 18.8418 5.05717 18.8026 5.13238 18.753C5.19758 18.71 5.26412 18.6501 5.58663 18.3276L15.0858 8.82842L12.5 6.24264ZM16.5 7.41421L13.9142 4.82843L16.2071 2.53553C16.9212 1.82149 18.0789 1.82149 18.7929 2.53553C19.507 3.24958 19.507 4.40728 18.7929 5.12132L16.5 7.41421Z" fill="currentColor"/>
</svg>
