<svg xmlns="http://www.w3.org/2000/svg" viewBox="0 0 21.6883 16" fill="none">
<path id="Icon" fill-rule="evenodd" clip-rule="evenodd" d="M5.20243 4.24291C3.69614 5.50007 2.64203 6.97738 2.10937 7.8208C2.07403 7.87676 2.04931 7.91596 2.02865 7.94998C2.01502 7.97243 2.00602 7.98796 2 7.99879C2 7.99919 2 7.99959 2 8C2 8.00041 2 8.00081 2 8.00121C2.00602 8.01204 2.01502 8.02757 2.02865 8.05002C2.04931 8.08404 2.07403 8.12324 2.10937 8.1792C2.64203 9.02263 3.69614 10.4999 5.20243 11.7571C6.70637 13.0123 8.60082 14 10.8442 14C13.0875 14 14.9819 13.0123 16.4859 11.7571C17.9922 10.4999 19.0463 9.02262 19.5789 8.1792C19.6143 8.12324 19.639 8.08404 19.6597 8.05002C19.6733 8.02757 19.6823 8.01204 19.6883 8.00121C19.6883 8.00081 19.6883 8.0004 19.6883 8C19.6883 7.9996 19.6883 7.99919 19.6883 7.99879C19.6823 7.98796 19.6733 7.97243 19.6597 7.94998C19.639 7.91596 19.6143 7.87676 19.5789 7.8208C19.0463 6.97738 17.9922 5.50007 16.4859 4.24291C14.9819 2.9877 13.0875 2 10.8442 2C8.60082 2 6.70637 2.9877 5.20243 4.24291ZM3.9209 2.70743C5.6495 1.26472 7.98248 0 10.8442 0C13.7058 0 16.0388 1.26472 17.7674 2.70743C19.4937 4.14818 20.6772 5.81429 21.2699 6.75285C21.2778 6.76525 21.2858 6.77791 21.294 6.79084C21.4116 6.97598 21.5644 7.21636 21.6416 7.55317C21.7039 7.82512 21.7039 8.17488 21.6416 8.44683C21.5644 8.78365 21.4116 9.02403 21.294 9.20917C21.2858 9.22209 21.2778 9.23475 21.2699 9.24715C20.6772 10.1857 19.4937 11.8518 17.7674 13.2926C16.0388 14.7353 13.7058 16 10.8442 16C7.98248 16 5.6495 14.7353 3.9209 13.2926C2.19465 11.8518 1.01112 10.1857 0.418372 9.24715C0.41054 9.23475 0.402499 9.2221 0.394287 9.20917C0.276667 9.02403 0.123952 8.78365 0.0467508 8.44683C-0.0155836 8.17488 -0.0155836 7.82512 0.0467508 7.55317C0.123952 7.21635 0.276667 6.97597 0.394287 6.79083C0.402499 6.7779 0.41054 6.76525 0.418372 6.75285C1.01112 5.81429 2.19465 4.14818 3.9209 2.70743ZM10.8442 6C9.73958 6 8.84415 6.89543 8.84415 8C8.84415 9.10457 9.73958 10 10.8442 10C11.9487 10 12.8442 9.10457 12.8442 8C12.8442 6.89543 11.9487 6 10.8442 6ZM6.84415 8C6.84415 5.79086 8.63501 4 10.8442 4C13.0533 4 14.8442 5.79086 14.8442 8C14.8442 10.2091 13.0533 12 10.8442 12C8.63501 12 6.84415 10.2091 6.84415 8Z" fill="currentColor"/>
</svg>
