<svg xmlns="http://www.w3.org/2000/svg" viewBox="0 0 18 22" fill="none">
<path id="Icon" fill-rule="evenodd" clip-rule="evenodd" d="M5.7587 4.31291e-07H12.2413C13.0463 -1.23241e-05 13.7106 -2.28137e-05 14.2518 0.0441945C14.8139 0.0901197 15.3306 0.188684 15.816 0.435975C16.5686 0.819468 17.1805 1.43139 17.564 2.18404C17.8113 2.66937 17.9099 3.18608 17.9558 3.74817C18 4.28936 18 4.95372 18 5.75868V16.2413C18 17.0463 18 17.7106 17.9558 18.2518C17.9099 18.8139 17.8113 19.3306 17.564 19.816C17.1805 20.5686 16.5686 21.1805 15.816 21.564C15.3306 21.8113 14.8139 21.9099 14.2518 21.9558C13.7106 22 13.0463 22 12.2413 22H5.75868C4.95372 22 4.28936 22 3.74817 21.9558C3.18608 21.9099 2.66937 21.8113 2.18404 21.564C1.43139 21.1805 0.819468 20.5686 0.435975 19.816C0.188684 19.3306 0.0901197 18.8139 0.0441945 18.2518C-2.28137e-05 17.7106 -1.23241e-05 17.0463 4.31291e-07 16.2413V5.7587C-1.23241e-05 4.95373 -2.28137e-05 4.28937 0.0441945 3.74817C0.0901197 3.18608 0.188684 2.66937 0.435975 2.18404C0.819468 1.43139 1.43139 0.819468 2.18404 0.435975C2.66937 0.188684 3.18608 0.0901197 3.74817 0.0441945C4.28937 -2.28137e-05 4.95373 -1.23241e-05 5.7587 4.31291e-07ZM3.91104 2.03755C3.47262 2.07337 3.24842 2.1383 3.09202 2.21799C2.7157 2.40973 2.40973 2.7157 2.21799 3.09202C2.1383 3.24842 2.07337 3.47262 2.03755 3.91104C2.00078 4.36113 2 4.94342 2 5.8V16.2C2 17.0566 2.00078 17.6389 2.03755 18.089C2.07337 18.5274 2.1383 18.7516 2.21799 18.908C2.40973 19.2843 2.7157 19.5903 3.09202 19.782C3.24842 19.8617 3.47262 19.9266 3.91104 19.9624C4.36113 19.9992 4.94342 20 5.8 20H12.2C13.0566 20 13.6389 19.9992 14.089 19.9624C14.5274 19.9266 14.7516 19.8617 14.908 19.782C15.2843 19.5903 15.5903 19.2843 15.782 18.908C15.8617 18.7516 15.9266 18.5274 15.9624 18.089C15.9992 17.6389 16 17.0566 16 16.2V5.8C16 4.94342 15.9992 4.36113 15.9624 3.91104C15.9266 3.47262 15.8617 3.24842 15.782 3.09202C15.5903 2.7157 15.2843 2.40973 14.908 2.21799C14.7516 2.1383 14.5274 2.07337 14.089 2.03755C13.6389 2.00078 13.0566 2 12.2 2H5.8C4.94342 2 4.36113 2.00078 3.91104 2.03755ZM9 6C9.55229 6 10 6.44772 10 7V17C10 17.5523 9.55229 18 9 18C8.44772 18 8 17.5523 8 17V7C8 6.44772 8.44772 6 9 6ZM13 10C13.5523 10 14 10.4477 14 11V17C14 17.5523 13.5523 18 13 18C12.4477 18 12 17.5523 12 17V11C12 10.4477 12.4477 10 13 10ZM5 12C5.55229 12 6 12.4477 6 13V17C6 17.5523 5.55229 18 5 18C4.44772 18 4 17.5523 4 17V13C4 12.4477 4.44772 12 5 12Z" fill="currentColor"/>
</svg>
