<svg xmlns="http://www.w3.org/2000/svg" viewBox="0 0 22 22" fill="none">
<path id="Icon" fill-rule="evenodd" clip-rule="evenodd" d="M7.46429 2C7.21442 2 6.97106 2.1009 6.78878 2.28649C6.6059 2.4727 6.50001 2.72903 6.50001 3C6.50001 3.27097 6.6059 3.5273 6.78878 3.71351C6.97106 3.8991 7.21442 4 7.46429 4H9.63425C9.56187 3.82865 9.47857 3.65116 9.38356 3.47527C8.89769 2.57581 8.27398 2 7.46429 2ZM10 6V9L2.60001 9C2.30348 9 2.14122 8.99922 2.02464 8.9897C2.02 8.98932 2.0156 8.98893 2.01145 8.98855C2.01107 8.9844 2.01069 8.98001 2.01031 8.97537C2.00078 8.85878 2.00001 8.69653 2.00001 8.4V6.6C2.00001 6.30347 2.00078 6.14122 2.01031 6.02463C2.01069 6.01999 2.01107 6.0156 2.01145 6.01145C2.0156 6.01107 2.02 6.01068 2.02464 6.0103C2.14122 6.00078 2.30348 6 2.60001 6H10ZM4.66953 4C4.55822 3.68133 4.50001 3.34339 4.50001 3C4.50001 2.21011 4.80802 1.44902 5.36188 0.885078C5.91635 0.320531 6.67224 0 7.46429 0C9.259 0 10.3725 1.21845 11 2.27223C11.6275 1.21845 12.741 0 14.5357 0C15.3278 0 16.0837 0.320531 16.6381 0.885078C17.192 1.44902 17.5 2.21011 17.5 3C17.5 3.34339 17.4418 3.68133 17.3305 4L19.4319 4C19.6843 3.99997 19.9301 3.99994 20.1382 4.01695C20.3668 4.03562 20.6366 4.07969 20.908 4.21799C21.2843 4.40973 21.5903 4.7157 21.782 5.09202C21.9203 5.36344 21.9644 5.63318 21.9831 5.86177C22.0001 6.06992 22 6.31571 22 6.56808V8.43192C22 8.68429 22.0001 8.93008 21.9831 9.13823C21.9644 9.36682 21.9203 9.63656 21.782 9.90798C21.5903 10.2843 21.2843 10.5903 20.908 10.782C20.6366 10.9203 20.3668 10.9644 20.1382 10.9831C20.0938 10.9867 20.0476 10.9895 20 10.9918V17.8386C20 18.3657 20 18.8205 19.9694 19.195C19.9371 19.5904 19.8658 19.9836 19.673 20.362C19.3854 20.9265 18.9265 21.3854 18.362 21.673C17.9836 21.8658 17.5904 21.9371 17.195 21.9694C16.8205 22 16.3657 22 15.8386 22H11.0014C11.0009 22 11.0005 22 11 22C10.9995 22 10.9991 22 10.9986 22H6.16144C5.6343 22 5.17954 22 4.80498 21.9694C4.40963 21.9371 4.01641 21.8658 3.63803 21.673C3.07355 21.3854 2.61461 20.9265 2.32699 20.362C2.13419 19.9836 2.06288 19.5904 2.03057 19.195C1.99997 18.8205 1.99999 18.3657 2 17.8385L2.00001 10.9918C1.95241 10.9895 1.90624 10.9867 1.86178 10.9831C1.63318 10.9644 1.36345 10.9203 1.09202 10.782C0.715701 10.5903 0.409739 10.2843 0.217992 9.90798C0.0796947 9.63656 0.0356271 9.36682 0.0169504 9.13823C-5.6861e-05 8.93007 -2.74161e-05 8.68428 2.50544e-06 8.4319L5.24726e-06 6.6C5.24726e-06 6.58936 3.93595e-06 6.57872 2.62465e-06 6.5681C-2.72969e-05 6.31572 -5.67418e-05 6.06993 0.0169505 5.86177C0.0356274 5.63318 0.079695 5.36344 0.217992 5.09202C0.409739 4.71569 0.7157 4.40973 1.09202 4.21799C1.36345 4.07969 1.63318 4.03562 1.86178 4.01695C2.06993 3.99994 2.31573 3.99997 2.56811 4C2.57873 4 2.58936 4 2.60001 4H4.66953ZM4.00001 11V17.8C4.00001 18.3766 4.00078 18.7488 4.02393 19.0322C4.04613 19.3038 4.08381 19.4045 4.109 19.454C4.20487 19.6421 4.35785 19.7951 4.54601 19.891C4.59546 19.9162 4.69618 19.9539 4.96784 19.9761C5.25118 19.9992 5.62345 20 6.20001 20H10V11H4.00001ZM12 11V20H15.8C16.3766 20 16.7488 19.9992 17.0322 19.9761C17.3038 19.9539 17.4046 19.9162 17.454 19.891C17.6422 19.7951 17.7951 19.6422 17.891 19.454C17.9162 19.4045 17.9539 19.3038 17.9761 19.0322C17.9992 18.7488 18 18.3766 18 17.8V11H12ZM19.4 9C19.6965 9 19.8588 8.99922 19.9754 8.9897C19.98 8.98932 19.9844 8.98893 19.9886 8.98854C19.9889 8.9844 19.9893 8.98001 19.9897 8.97537C19.9992 8.85878 20 8.69653 20 8.4V6.6C20 6.30347 19.9992 6.14122 19.9897 6.02463C19.9893 6.01999 19.9889 6.0156 19.9885 6.01145C19.9844 6.01107 19.98 6.01068 19.9754 6.0103C19.8588 6.00078 19.6965 6 19.4 6H12V9H19.4ZM14.5357 4C14.7856 4 15.0289 3.8991 15.2112 3.71351C15.3941 3.5273 15.5 3.27097 15.5 3C15.5 2.72903 15.3941 2.4727 15.2112 2.28649C15.0289 2.1009 14.7856 2 14.5357 2C13.726 2 13.1023 2.57581 12.6165 3.47527C12.5214 3.65116 12.4381 3.82865 12.3658 4H14.5357Z" fill="currentColor"/>
</svg>
