<svg xmlns="http://www.w3.org/2000/svg" viewBox="0 0 20 20" fill="none">
<path id="Icon" fill-rule="evenodd" clip-rule="evenodd" d="M4 2C2.89543 2 2 2.89543 2 4C2 5.10457 2.89543 6 4 6C5.10457 6 6 5.10457 6 4C6 2.89543 5.10457 2 4 2ZM0 4C0 1.79086 1.79086 0 4 0C6.20914 0 8 1.79086 8 4C8 5.84705 6.74809 7.4017 5.04652 7.86171C5.24201 9.66656 6.04737 11.3611 7.34315 12.6569C8.63892 13.9526 10.3334 14.758 12.1383 14.9535C12.5983 13.2519 14.153 12 16 12C18.2091 12 20 13.7909 20 16C20 18.2091 18.2091 20 16 20C14.1221 20 12.5465 18.7059 12.1162 16.9609C9.78798 16.7544 7.59483 15.737 5.92893 14.0711C5.59237 13.7345 5.28228 13.3764 5 13.0001V19C5 19.5523 4.55228 20 4 20C3.44772 20 3 19.5523 3 19V7.87398C1.27477 7.42994 0 5.86384 0 4ZM16 14C14.8954 14 14 14.8954 14 16C14 17.1046 14.8954 18 16 18C17.1046 18 18 17.1046 18 16C18 14.8954 17.1046 14 16 14Z" fill="currentColor"/>
</svg>
