<svg xmlns="http://www.w3.org/2000/svg" viewBox="0 0 22.0004 21.882" fill="none">
<path id="Icon" fill-rule="evenodd" clip-rule="evenodd" d="M10.8028 1.96143L10.8029 1.96143ZM11.0002 2.05902L18.7642 5.94098L11.0002 9.82295L3.23629 5.94098L11.0002 2.05902ZM10.8028 9.92054C10.8026 9.92063 10.8026 9.92062 10.8029 9.92053ZM11.1976 9.92053C11.1978 9.92062 11.1978 9.92063 11.1976 9.92054ZM11.1976 1.96143L11.1976 1.96143ZM10.7236 0.0257224C10.9064 -0.00857414 11.094 -0.00857414 11.2768 0.0257224C11.4933 0.0663301 11.6863 0.164862 11.7796 0.212471C11.7892 0.217374 11.7978 0.221737 11.8052 0.225441L21.4474 5.04656C21.7862 5.21595 22.0002 5.56221 22.0002 5.94098C22.0002 6.31976 21.7862 6.66602 21.4474 6.83541L11.8052 11.6565C11.7978 11.6602 11.7892 11.6646 11.7796 11.6695C11.6863 11.7171 11.4933 11.8156 11.2768 11.8562C11.094 11.8905 10.9064 11.8905 10.7236 11.8562C10.5072 11.8156 10.3141 11.7171 10.2208 11.6695C10.2112 11.6646 10.2026 11.6602 10.1952 11.6565L0.553005 6.83541C0.214221 6.66602 0.000219057 6.31976 0.000219057 5.94098C0.000219057 5.56221 0.214221 5.21595 0.553005 5.04656L10.1952 0.225441C10.2026 0.221737 10.2112 0.217373 10.2208 0.212469C10.3141 0.16486 10.5072 0.0663296 10.7236 0.0257224ZM0.105792 10.4938C0.352781 9.99979 0.953454 9.79957 1.44743 10.0466L11.0002 14.8229L20.553 10.0466C21.047 9.79957 21.6477 9.99979 21.8946 10.4938C22.1416 10.9877 21.9414 11.5884 21.4474 11.8354L11.8052 16.6565C11.7978 16.6602 11.7892 16.6646 11.7796 16.6695C11.6863 16.7171 11.4933 16.8156 11.2768 16.8562C11.094 16.8905 10.9064 16.8905 10.7236 16.8562C10.5072 16.8156 10.3141 16.7171 10.2208 16.6695C10.2112 16.6646 10.2026 16.6602 10.1952 16.6565L0.553005 11.8354C0.059027 11.5884 -0.141197 10.9877 0.105792 10.4938ZM10.8028 14.9205C10.8026 14.9206 10.8026 14.9206 10.8029 14.9205ZM11.1976 14.9205C11.1978 14.9206 11.1978 14.9206 11.1976 14.9205ZM0.105792 15.4938C0.352781 14.9998 0.953454 14.7996 1.44743 15.0466L11.0002 19.823L20.553 15.0466C21.047 14.7996 21.6477 14.9998 21.8946 15.4938C22.1416 15.9877 21.9414 16.5884 21.4474 16.8354L11.8052 21.6565C11.7978 21.6602 11.7892 21.6646 11.7796 21.6695C11.6863 21.7171 11.4933 21.8156 11.2768 21.8562C11.094 21.8905 10.9064 21.8905 10.7236 21.8562C10.5072 21.8156 10.3141 21.7171 10.2208 21.6695C10.2112 21.6646 10.2026 21.6602 10.1952 21.6565L0.553005 16.8354C0.0590269 16.5884 -0.141197 15.9877 0.105792 15.4938Z" fill="currentColor"/>
</svg>
