<svg xmlns="http://www.w3.org/2000/svg" viewBox="0 0 20.0007 21.7121" fill="none">
<path id="Icon" fill-rule="evenodd" clip-rule="evenodd" d="M9.59747 0.041003C9.86329 -0.0136677 10.1375 -0.0136677 10.4033 0.041003C10.7105 0.104199 10.9852 0.258026 11.2035 0.380319C11.2239 0.391708 11.2437 0.402823 11.263 0.413566L18.663 4.52468C18.6835 4.53604 18.7046 4.54765 18.7262 4.55955C18.9573 4.68686 19.2479 4.84693 19.4711 5.08911C19.6641 5.29849 19.8101 5.54665 19.8994 5.817C20.0027 6.1297 20.0015 6.46148 20.0005 6.72536C20.0005 6.75002 20.0004 6.77408 20.0004 6.79749V14.9146C20.0004 14.938 20.0005 14.9621 20.0005 14.9867C20.0015 15.2506 20.0027 15.5824 19.8994 15.8951C19.8101 16.1654 19.6641 16.4136 19.4711 16.623C19.2479 16.8652 18.9573 17.0252 18.7262 17.1525C18.7046 17.1644 18.6835 17.176 18.663 17.1874L11.263 21.2985C11.2437 21.3093 11.2239 21.3204 11.2035 21.3318C10.9852 21.4541 10.7105 21.6079 10.4033 21.6711C10.1375 21.7257 9.86329 21.7257 9.59747 21.6711C9.29019 21.6079 9.01555 21.4541 8.79721 21.3318C8.77688 21.3204 8.75703 21.3093 8.7377 21.2985L1.3377 17.1874C1.31724 17.176 1.29616 17.1644 1.27457 17.1525C1.04343 17.0252 0.752814 16.8652 0.529635 16.623C0.336685 16.4136 0.190664 16.1654 0.101338 15.8951C-0.00197883 15.5824 -0.000770164 15.2506 0.00019114 14.9867C0.000281023 14.9621 0.000368761 14.938 0.000368761 14.9146V6.79749C0.000368761 6.77409 0.000281023 6.75002 0.00019114 6.72536C-0.000770164 6.46149 -0.00197883 6.12971 0.101338 5.817C0.190663 5.54665 0.336684 5.29849 0.529635 5.08911C0.75281 4.84693 1.04343 4.68686 1.27456 4.55955C1.29616 4.54766 1.31724 4.53605 1.3377 4.52468L8.7377 0.413567C8.75703 0.402824 8.77688 0.391709 8.79721 0.380321C9.01555 0.258027 9.29019 0.1042 9.59747 0.041003ZM10.0004 2.00503C9.99885 2.00576 9.99725 2.00652 9.99559 2.00732C9.93788 2.03515 9.86053 2.07769 9.70898 2.16188L7.53509 3.3696L14.2654 7.34257L16.9412 5.85602L10.2918 2.16188C10.1402 2.07769 10.0629 2.03515 10.0052 2.00732C10.0035 2.00652 10.0019 2.00576 10.0004 2.00503ZM18.0004 7.55551V14.9146C18.0004 15.0976 18 15.1912 17.9959 15.259C17.9957 15.261 17.9956 15.2629 17.9955 15.2648C17.994 15.2658 17.9924 15.2668 17.9907 15.2679C17.9334 15.3044 17.8517 15.3502 17.6918 15.4391L11.0004 19.1565L11.0003 11.4444L18.0004 7.55551ZM10.0003 9.71205L12.2386 8.46858L5.50826 4.49562L3.05951 5.85604L10.0003 9.71205ZM2.00037 7.55554V14.9146C2.00037 15.0976 2.00078 15.1912 2.00487 15.259C2.00499 15.261 2.00511 15.2629 2.00523 15.2648C2.00677 15.2658 2.00838 15.2668 2.01007 15.2679C2.06737 15.3044 2.14903 15.3502 2.30898 15.4391L9.00037 19.1565L9.00034 11.4444L2.00037 7.55554Z" fill="currentColor"/>
</svg>
