<svg xmlns="http://www.w3.org/2000/svg" viewBox="0 0 22 22" fill="none">
<path id="Icon" fill-rule="evenodd" clip-rule="evenodd" d="M5.5 3.5C5.5 1.567 7.067 0 9 0C10.933 0 12.5 1.567 12.5 3.5V4L12.5343 4C13.2041 3.99999 13.7569 3.99998 14.2095 4.03086C14.6788 4.06288 15.1129 4.13142 15.5307 4.30448C16.5108 4.71046 17.2895 5.48915 17.6955 6.46927C17.8686 6.88708 17.9371 7.32118 17.9691 7.79046C17.9837 8.00406 17.9914 8.23999 17.9955 8.5H18.5C20.433 8.5 22 10.067 22 12C22 13.933 20.433 15.5 18.5 15.5H18V16.2413C18 17.0463 18 17.7106 17.9558 18.2518C17.9099 18.8139 17.8113 19.3306 17.564 19.816C17.1805 20.5686 16.5686 21.1805 15.816 21.564C15.3306 21.8113 14.8139 21.9099 14.2518 21.9558C13.7106 22 13.0463 22 12.2413 22H11.5C10.9477 22 10.5 21.5523 10.5 21V19.25C10.5 18.5596 9.94036 18 9.25 18C8.55965 18 8 18.5596 8 19.25V21C8 21.5523 7.55229 22 7 22H5.75868C4.95372 22 4.28936 22 3.74817 21.9558C3.18608 21.9099 2.66937 21.8113 2.18404 21.564C1.43139 21.1805 0.819468 20.5686 0.435975 19.816C0.188684 19.3306 0.0901197 18.8139 0.0441945 18.2518C-2.28137e-05 17.7106 -1.23241e-05 17.0463 4.31291e-07 16.2413L9.08128e-07 14.5C9.08128e-07 13.9477 0.447716 13.5 1 13.5H2.5C3.32843 13.5 4 12.8284 4 12C4 11.1716 3.32843 10.5 2.5 10.5H1C0.447716 10.5 9.08128e-07 10.0523 9.08128e-07 9.5L6.6971e-07 9.46573C-8.27099e-06 8.79594 -1.55419e-05 8.24307 0.0308656 7.79046C0.0628847 7.32118 0.131419 6.88708 0.304483 6.46927C0.710458 5.48915 1.48915 4.71046 2.46927 4.30448C2.88708 4.13142 3.32118 4.06288 3.79046 4.03086C4.24307 3.99998 4.79594 3.99999 5.46573 4L5.5 4L5.5 3.5ZM9 2C8.17157 2 7.5 2.67157 7.5 3.5V5C7.5 5.55228 7.05229 6 6.5 6H5.5C4.78741 6 4.30304 6.00054 3.9266 6.02623C3.55915 6.0513 3.36813 6.09694 3.23463 6.15224C2.74458 6.35523 2.35523 6.74458 2.15224 7.23463C2.09694 7.36813 2.0513 7.55915 2.02623 7.9266C2.01486 8.09314 2.00842 8.2808 2.00477 8.5H2.5C4.433 8.5 6 10.067 6 12C6 13.933 4.433 15.5 2.5 15.5H2V16.2C2 17.0566 2.00078 17.6389 2.03755 18.089C2.07337 18.5274 2.1383 18.7516 2.21799 18.908C2.40973 19.2843 2.7157 19.5903 3.09202 19.782C3.24842 19.8617 3.47262 19.9266 3.91104 19.9624C4.36113 19.9992 4.94342 20 5.8 20H6V19.25C6 17.4551 7.45508 16 9.25 16C11.0449 16 12.5 17.4551 12.5 19.25V19.9999C13.196 19.9993 13.6935 19.9948 14.089 19.9624C14.5274 19.9266 14.7516 19.8617 14.908 19.782C15.2843 19.5903 15.5903 19.2843 15.782 18.908C15.8617 18.7516 15.9266 18.5274 15.9624 18.089C15.9992 17.6389 16 17.0566 16 16.2V14.5C16 13.9477 16.4477 13.5 17 13.5H18.5C19.3284 13.5 20 12.8284 20 12C20 11.1716 19.3284 10.5 18.5 10.5H17C16.4477 10.5 16 10.0523 16 9.5C16 8.78741 15.9995 8.30304 15.9738 7.9266C15.9487 7.55915 15.9031 7.36813 15.8478 7.23463C15.6448 6.74458 15.2554 6.35523 14.7654 6.15224C14.6319 6.09694 14.4409 6.0513 14.0734 6.02623C13.697 6.00054 13.2126 6 12.5 6H11.5C10.9477 6 10.5 5.55228 10.5 5V3.5C10.5 2.67157 9.82843 2 9 2Z" fill="currentColor"/>
</svg>
