<svg xmlns="http://www.w3.org/2000/svg" viewBox="0 0 18 20" fill="none">
<path id="Icon" fill-rule="evenodd" clip-rule="evenodd" d="M5.7587 4.31291e-07H12.2413C13.0463 -1.23241e-05 13.7106 -2.28137e-05 14.2518 0.0441945C14.8139 0.0901197 15.3306 0.188684 15.816 0.435975C16.5686 0.819468 17.1805 1.43139 17.564 2.18404C17.8113 2.66937 17.9099 3.18608 17.9558 3.74817C18 4.28936 18 4.95372 18 5.75868V19C18 19.3761 17.7889 19.7204 17.4538 19.8911C17.1186 20.0618 16.716 20.03 16.4118 19.8087L14.2789 18.2575L12.3747 19.7809C12.0229 20.0623 11.5262 20.0738 11.1618 19.8087L9 18.2365L6.83817 19.8087C6.47377 20.0738 5.97715 20.0623 5.62531 19.7809L3.72111 18.2575L1.58817 19.8087C1.28399 20.03 0.881394 20.0618 0.546223 19.8911C0.211053 19.7204 9.08128e-07 19.3761 9.08128e-07 19L4.31291e-07 5.7587C-1.23241e-05 4.95373 -2.28137e-05 4.28937 0.0441945 3.74817C0.0901197 3.18608 0.188684 2.66937 0.435975 2.18404C0.819468 1.43139 1.43139 0.819468 2.18404 0.435975C2.66937 0.188684 3.18608 0.0901197 3.74817 0.0441945C4.28937 -2.28137e-05 4.95373 -1.23241e-05 5.7587 4.31291e-07ZM3.91104 2.03755C3.47262 2.07337 3.24842 2.1383 3.09202 2.21799C2.7157 2.40973 2.40973 2.7157 2.21799 3.09202C2.1383 3.24842 2.07337 3.47262 2.03755 3.91104C2.00078 4.36113 2 4.94342 2 5.8V17.0362L3.16183 16.1913C3.52623 15.9262 4.02285 15.9377 4.3747 16.2191L6.27889 17.7425L8.41183 16.1913C8.76248 15.9362 9.23752 15.9362 9.58817 16.1913L11.7211 17.7425L13.6253 16.2191C13.9771 15.9377 14.4738 15.9262 14.8382 16.1913L16 17.0362V5.8C16 4.94342 15.9992 4.36113 15.9624 3.91104C15.9266 3.47262 15.8617 3.24842 15.782 3.09202C15.5903 2.7157 15.2843 2.40973 14.908 2.21799C14.7516 2.1383 14.5274 2.07337 14.089 2.03755C13.6389 2.00078 13.0566 2 12.2 2H5.8C4.94342 2 4.36113 2.00078 3.91104 2.03755Z" fill="currentColor"/>
</svg>
