<svg xmlns="http://www.w3.org/2000/svg" viewBox="0 0 22 22" fill="none">
<path id="Icon" fill-rule="evenodd" clip-rule="evenodd" d="M4 2C2.89543 2 2 2.89543 2 4C2 5.10457 2.89543 6 4 6C5.10457 6 6 5.10457 6 4C6 2.89543 5.10457 2 4 2ZM0 4C0 1.79086 1.79086 0 4 0C6.20914 0 8 1.79086 8 4C8 6.20914 6.20914 8 4 8C1.79086 8 0 6.20914 0 4ZM14.3531 5.06506C13.5699 5.00083 12.4768 5 10.9344 5H10.5C9.94771 5 9.5 4.55228 9.5 4C9.5 3.44772 9.94771 3 10.5 3L10.9846 3C12.4658 2.99999 13.6415 2.99998 14.5166 3.07176C14.9623 3.10831 15.3749 3.16645 15.736 3.26872C16.0962 3.37071 16.4673 3.53362 16.771 3.82093C17.5209 4.53055 17.8532 5.57592 17.6507 6.58832C17.5688 6.99821 17.3599 7.34552 17.1247 7.63678C16.8889 7.92882 16.5856 8.21455 16.2429 8.50177C15.5699 9.06572 14.61 9.74466 13.4007 10.6L9.29518 13.5039C8.0359 14.3946 7.14402 15.0264 6.54167 15.5312C6.24297 15.7815 6.0505 15.9721 5.9314 16.1196C5.83281 16.2417 5.81191 16.3009 5.80978 16.3071C5.74385 16.6425 5.8538 16.9884 6.1013 17.2241C6.10663 17.2279 6.15787 17.2642 6.30887 17.3069C6.49129 17.3586 6.75849 17.4031 7.1469 17.4349C7.93013 17.4992 9.02315 17.5 10.5656 17.5H11.5C12.0523 17.5 12.5 17.9477 12.5 18.5C12.5 19.0523 12.0523 19.5 11.5 19.5H10.5154C9.03426 19.5 7.85853 19.5 6.98341 19.4282C6.53771 19.3917 6.12511 19.3335 5.76395 19.2313C5.40378 19.1293 5.03267 18.9664 4.72904 18.6791C3.97912 17.9694 3.64679 16.9241 3.84925 15.9117C3.93123 15.5018 4.14013 15.1545 4.37529 14.8632C4.61108 14.5712 4.91437 14.2854 5.25714 13.9982C5.93015 13.4343 6.89004 12.7553 8.09927 11.9L12.2048 8.99611C13.4641 8.1054 14.356 7.47355 14.9583 6.96881C15.257 6.71851 15.4495 6.5279 15.5686 6.38039C15.6672 6.25833 15.6881 6.19915 15.6902 6.1929C15.7562 5.85751 15.6462 5.51165 15.3987 5.2759C15.3934 5.27206 15.3421 5.23581 15.1911 5.19305C15.0087 5.1414 14.7415 5.09692 14.3531 5.06506ZM18 16C16.8954 16 16 16.8954 16 18C16 19.1046 16.8954 20 18 20C19.1046 20 20 19.1046 20 18C20 16.8954 19.1046 16 18 16ZM14 18C14 15.7909 15.7909 14 18 14C20.2091 14 22 15.7909 22 18C22 20.2091 20.2091 22 18 22C15.7909 22 14 20.2091 14 18Z" fill="currentColor"/>
</svg>
