<svg xmlns="http://www.w3.org/2000/svg" viewBox="0 0 21.995 21.9925" fill="none">
<path id="Vector" d="M15.4925 13.9925C15.4925 14.8225 14.8225 15.4925 13.9925 15.4925C13.1625 15.4925 12.4925 14.8225 12.4925 13.9925C12.4925 13.1625 13.1625 12.4925 13.9925 12.4925C14.8225 12.4925 15.4925 13.1625 15.4925 13.9925ZM21.9925 14.2925C21.9925 14.6925 21.9125 15.0825 21.7625 15.4525C21.6125 15.8225 21.3925 16.1525 21.1025 16.4325C20.8125 16.7225 20.4825 16.9425 20.1125 17.0925L18.3725 17.8125C18.1125 17.9225 17.9225 18.1125 17.8125 18.3725L17.0925 20.1225C16.7825 20.8725 16.2025 21.4525 15.4525 21.7625C14.7125 22.0625 13.8725 22.0625 13.1325 21.7625L11.3925 21.0425C11.1425 20.9325 10.8625 20.9425 10.6025 21.0425L8.8525 21.7625C8.4825 21.9225 8.0825 21.9925 7.6925 21.9925C7.3025 21.9925 6.9025 21.9125 6.5325 21.7625C5.7925 21.4525 5.1925 20.8625 4.8925 20.1225L4.1725 18.3725C4.0625 18.1225 3.8725 17.9225 3.6125 17.8125L1.8725 17.0925C1.1225 16.7825 0.5425 16.2025 0.2325 15.4525C-0.0775 14.7025 -0.0775 13.8825 0.2325 13.1325L0.9525 11.3925C1.0625 11.1425 1.0525 10.8525 0.9525 10.6025L0.2325 8.8525C0.0825 8.4825 0.00249998 8.0925 0.00249998 7.6925C0.00249998 7.2925 0.0825 6.9025 0.2325 6.5325C0.3825 6.1625 0.6025 5.8325 0.8925 5.5525C1.1725 5.2725 1.5025 5.0525 1.8725 4.8925L3.6225 4.1725C3.8825 4.0625 4.0725 3.8725 4.1825 3.6125L4.9025 1.8725C5.2125 1.1225 5.7925 0.5425 6.5425 0.2325C7.2925 -0.0775 8.1125 -0.0775 8.8625 0.2325L10.6025 0.9525C10.8525 1.0625 11.1325 1.0625 11.3925 0.9525L13.1425 0.2325C13.8925 -0.0775 14.7125 -0.0775 15.4625 0.2325C16.2125 0.5425 16.7925 1.1225 17.1025 1.8725L17.8025 3.5725C17.8025 3.5725 17.8125 3.6025 17.8225 3.6125C17.9225 3.8625 18.1225 4.0625 18.3825 4.1725L20.1225 4.8925C20.8725 5.2025 21.4525 5.7825 21.7625 6.5325C22.0725 7.2725 22.0725 8.1125 21.7625 8.8525L21.0425 10.5925C20.9325 10.8425 20.9325 11.1325 21.0425 11.3825L21.7625 13.1325C21.9125 13.5025 21.9925 13.8925 21.9925 14.2925ZM19.9925 14.2925C19.9925 14.1525 19.9625 14.0225 19.9125 13.9025L19.1925 12.1525C18.8825 11.4125 18.8825 10.5825 19.1925 9.8325L19.9125 8.0925C20.0125 7.8425 20.0125 7.5525 19.9125 7.3025C19.8125 7.0525 19.6025 6.8425 19.3525 6.7425L17.6025 6.0225C16.8725 5.7225 16.3025 5.1525 15.9825 4.4325C15.9825 4.4125 15.9625 4.3925 15.9625 4.3825L15.2425 2.6325C15.1425 2.3825 14.9325 2.1825 14.6825 2.0725C14.4225 1.9625 14.1425 1.9625 13.8925 2.0725L12.1425 2.7925C11.3925 3.1025 10.5725 3.1025 9.8225 2.7925L8.0825 2.0725C7.9525 2.0225 7.8225 1.9925 7.6825 1.9925C7.5425 1.9925 7.4125 2.0225 7.2925 2.0725C7.0425 2.1725 6.8325 2.3825 6.7325 2.6325L6.0125 4.3825C5.7025 5.1325 5.1125 5.7125 4.3725 6.0225L2.6325 6.7425C2.5125 6.7925 2.3925 6.8725 2.3025 6.9625C2.2025 7.0625 2.1325 7.1725 2.0825 7.3025C2.0325 7.4325 2.0025 7.5625 2.0025 7.7025C2.0025 7.8425 2.0325 7.9725 2.0825 8.1025L2.8025 9.8525C3.1125 10.6025 3.1125 11.4225 2.8025 12.1725L2.0825 13.9125C1.9825 14.1625 1.9825 14.4525 2.0825 14.7025C2.1825 14.9525 2.3925 15.1525 2.6425 15.2625L4.3825 15.9825C5.1325 16.2925 5.7125 16.8725 6.0225 17.6225L6.7425 19.3725C6.8425 19.6225 7.0525 19.8225 7.3025 19.9325C7.5525 20.0425 7.8325 20.0425 8.0925 19.9325L9.8425 19.2125C10.5925 18.9025 11.4125 18.9025 12.1625 19.2125L13.9025 19.9325C14.1525 20.0325 14.4425 20.0325 14.6925 19.9325C14.9425 19.8225 15.1425 19.6325 15.2525 19.3725L15.9725 17.6225C16.2825 16.8725 16.8625 16.2925 17.6125 15.9825L19.3525 15.2625C19.4825 15.2125 19.5925 15.1325 19.6925 15.0425C19.7925 14.9425 19.8625 14.8325 19.9125 14.7125C19.9625 14.5825 19.9925 14.4525 19.9925 14.3125V14.2925ZM7.9925 9.4925C8.8225 9.4925 9.4925 8.8225 9.4925 7.9925C9.4925 7.1625 8.8225 6.4925 7.9925 6.4925C7.1625 6.4925 6.4925 7.1625 6.4925 7.9925C6.4925 8.8225 7.1625 9.4925 7.9925 9.4925ZM14.2825 6.2825L6.2825 14.2825C5.8925 14.6725 5.8925 15.3025 6.2825 15.6925C6.4825 15.8925 6.7325 15.9825 6.9925 15.9825C7.2525 15.9825 7.5025 15.8825 7.7025 15.6925L15.7025 7.6925C16.0925 7.3025 16.0925 6.6725 15.7025 6.2825C15.3125 5.8925 14.6825 5.8925 14.2925 6.2825H14.2825Z" fill="var(--fill-0, black)"/>
</svg>
