<svg xmlns="http://www.w3.org/2000/svg" viewBox="0 0 20.01 20" fill="none">
<path id="Icon" fill-rule="evenodd" clip-rule="evenodd" d="M5.7587 4.31291e-07L6 9.08128e-07C6.55229 9.08128e-07 7 0.447716 7 1C7 1.55229 6.55229 2 6 2H5.8C4.94342 2 4.36113 2.00078 3.91104 2.03755C3.47262 2.07337 3.24842 2.1383 3.09202 2.21799C2.7157 2.40973 2.40973 2.7157 2.21799 3.09202C2.1383 3.24842 2.07337 3.47262 2.03755 3.91104C2.00078 4.36113 2 4.94342 2 5.8V6C2 6.55229 1.55229 7 1 7C0.447716 7 9.08128e-07 6.55229 9.08128e-07 6L4.31291e-07 5.7587C-1.23241e-05 4.95373 -2.28137e-05 4.28937 0.0441945 3.74817C0.0901197 3.18608 0.188684 2.66937 0.435975 2.18404C0.819468 1.43139 1.43139 0.819468 2.18404 0.435975C2.66937 0.188684 3.18608 0.0901197 3.74817 0.0441945C4.28937 -2.28137e-05 4.95373 -1.23241e-05 5.7587 4.31291e-07ZM16.089 2.03755C15.6389 2.00078 15.0566 2 14.2 2H14C13.4477 2 13 1.55229 13 1C13 0.447716 13.4477 9.08128e-07 14 9.08128e-07L14.2413 4.31291e-07C15.0463 -1.23241e-05 15.7106 -2.28137e-05 16.2518 0.0441946C16.8139 0.0901198 17.3306 0.188684 17.816 0.435975C18.5686 0.819468 19.1805 1.43139 19.564 2.18404C19.8113 2.66937 19.9099 3.18608 19.9558 3.74817C20 4.28936 20 4.95372 20 5.75868V6C20 6.55229 19.5523 7 19 7C18.4477 7 18 6.55229 18 6V5.8C18 4.94342 17.9992 4.36113 17.9624 3.91104C17.9266 3.47262 17.8617 3.24842 17.782 3.09202C17.5903 2.7157 17.2843 2.40973 16.908 2.21799C16.7516 2.1383 16.5274 2.07337 16.089 2.03755ZM9.08128e-07 10C9.08128e-07 9.44772 0.447716 9 1 9H1.01C1.56229 9 2.01 9.44772 2.01 10C2.01 10.5523 1.56229 11 1.01 11H1C0.447716 11 9.08128e-07 10.5523 9.08128e-07 10ZM4.5 10C4.5 9.44772 4.94772 9 5.5 9H5.51C6.06229 9 6.51 9.44772 6.51 10C6.51 10.5523 6.06229 11 5.51 11H5.5C4.94772 11 4.5 10.5523 4.5 10ZM9 10C9 9.44772 9.44772 9 10 9H10.01C10.5623 9 11.01 9.44772 11.01 10C11.01 10.5523 10.5623 11 10.01 11H10C9.44772 11 9 10.5523 9 10ZM13.5 10C13.5 9.44772 13.9477 9 14.5 9H14.51C15.0623 9 15.51 9.44772 15.51 10C15.51 10.5523 15.0623 11 14.51 11H14.5C13.9477 11 13.5 10.5523 13.5 10ZM18 10C18 9.44772 18.4477 9 19 9H19.01C19.5623 9 20.01 9.44772 20.01 10C20.01 10.5523 19.5623 11 19.01 11H19C18.4477 11 18 10.5523 18 10ZM1 13C1.55229 13 2 13.4477 2 14V14.2C2 15.0566 2.00078 15.6389 2.03755 16.089C2.07337 16.5274 2.1383 16.7516 2.21799 16.908C2.40973 17.2843 2.7157 17.5903 3.09202 17.782C3.24842 17.8617 3.47262 17.9266 3.91104 17.9624C4.36113 17.9992 4.94342 18 5.8 18H6C6.55229 18 7 18.4477 7 19C7 19.5523 6.55229 20 6 20H5.75868C4.95372 20 4.28936 20 3.74817 19.9558C3.18608 19.9099 2.66937 19.8113 2.18404 19.564C1.43139 19.1805 0.819468 18.5686 0.435975 17.816C0.188684 17.3306 0.0901197 16.8139 0.0441945 16.2518C-2.28137e-05 15.7106 -1.23241e-05 15.0463 4.31291e-07 14.2413L9.08128e-07 14C9.08128e-07 13.4477 0.447716 13 1 13ZM19 13C19.5523 13 20 13.4477 20 14V14.2413C20 15.0463 20 15.7106 19.9558 16.2518C19.9099 16.8139 19.8113 17.3306 19.564 17.816C19.1805 18.5686 18.5686 19.1805 17.816 19.564C17.3306 19.8113 16.8139 19.9099 16.2518 19.9558C15.7106 20 15.0463 20 14.2413 20H14C13.4477 20 13 19.5523 13 19C13 18.4477 13.4477 18 14 18H14.2C15.0566 18 15.6389 17.9992 16.089 17.9624C16.5274 17.9266 16.7516 17.8617 16.908 17.782C17.2843 17.5903 17.5903 17.2843 17.782 16.908C17.8617 16.7516 17.9266 16.5274 17.9624 16.089C17.9992 15.6389 18 15.0566 18 14.2V14C18 13.4477 18.4477 13 19 13Z" fill="currentColor"/>
</svg>
