<svg xmlns="http://www.w3.org/2000/svg" viewBox="0 0 18.0005 21.7936" fill="none">
<path id="Icon" fill-rule="evenodd" clip-rule="evenodd" d="M8.71423 0.0205593C8.90394 -0.0068531 9.09659 -0.0068531 9.2863 0.0205593C9.50493 0.052152 9.70837 0.129008 9.86991 0.190033C9.88469 0.195618 9.89912 0.201071 9.91319 0.206344L15.275 2.21702C15.3189 2.23348 15.3624 2.24974 15.4056 2.26587C16.0234 2.49652 16.566 2.69907 16.9838 3.06729C17.3493 3.38942 17.6309 3.79571 17.8041 4.25106C18.0022 4.77156 18.0014 5.35068 18.0004 6.01012C18.0003 6.05622 18.0003 6.10271 18.0003 6.1496V10.932C18.0003 13.7586 16.463 16.1152 14.8012 17.8464C13.1283 19.5892 11.2143 20.8202 10.2022 21.4106C10.1888 21.4184 10.1752 21.4264 10.1612 21.4346C9.97649 21.5431 9.73677 21.6839 9.41963 21.7519C9.16017 21.8075 8.84036 21.8075 8.5809 21.7519C8.26376 21.6839 8.02403 21.5431 7.83934 21.4346C7.82537 21.4264 7.81171 21.4184 7.79836 21.4106C6.78626 20.8202 4.87222 19.5892 3.19932 17.8464C1.53756 16.1152 0.000264831 13.7586 0.000264831 10.932V6.1496C0.000264831 6.10271 0.000197478 6.05623 0.00013072 6.01013C-0.000824265 5.35069 -0.00166303 4.77157 0.196405 4.25106C0.369677 3.79571 0.651239 3.38942 1.01675 3.06729C1.43457 2.69907 1.97712 2.49652 2.59491 2.26586C2.63809 2.24974 2.68164 2.23348 2.72555 2.21702L8.08734 0.206344C8.10141 0.201071 8.11584 0.195618 8.13062 0.190033C8.29216 0.129007 8.4956 0.052152 8.71423 0.0205593ZM8.99725 2.00327C8.9564 2.01666 8.901 2.03722 8.78959 2.079L3.42779 4.08968C2.60255 4.39914 2.44374 4.47554 2.33909 4.56777C2.21726 4.67514 2.1234 4.81057 2.06564 4.96235C2.01604 5.09272 2.00026 5.26824 2.00026 6.1496V10.932C2.00026 13.0138 3.13995 14.8964 4.64218 16.4614C6.13327 18.0148 7.87024 19.1371 8.80618 19.6831C8.86339 19.7165 8.90465 19.7405 8.94053 19.7607C8.96869 19.7766 8.98742 19.7866 9.00027 19.7931C9.01311 19.7866 9.03185 19.7766 9.06 19.7607C9.09588 19.7405 9.13714 19.7165 9.19435 19.6831C10.1303 19.1371 11.8673 18.0148 13.3584 16.4614C14.8606 14.8964 16.0003 13.0138 16.0003 10.932V6.1496C16.0003 5.26824 15.9845 5.09272 15.9349 4.96235C15.8771 4.81057 15.7833 4.67514 15.6614 4.56777C15.5568 4.47554 15.398 4.39914 14.5727 4.08968L9.21094 2.079C9.09953 2.03722 9.04413 2.01666 9.00328 2.00327C9.00224 2.00293 9.00123 2.0026 9.00027 2.00229C8.9993 2.0026 8.99829 2.00293 8.99725 2.00327ZM13.2074 7.22489C13.5979 7.61542 13.5979 8.24858 13.2074 8.63911L8.70737 13.1391C8.31685 13.5296 7.68368 13.5296 7.29316 13.1391L5.29316 11.1391C4.90263 10.7486 4.90263 10.1154 5.29316 9.72489C5.68368 9.33437 6.31685 9.33437 6.70737 9.72489L8.00027 11.0178L11.7932 7.22489C12.1837 6.83437 12.8168 6.83437 13.2074 7.22489Z" fill="currentColor"/>
</svg>
