<svg xmlns="http://www.w3.org/2000/svg" viewBox="0 0 21.8886 22" fill="none">
<path id="Icon" fill-rule="evenodd" clip-rule="evenodd" d="M2.67163 0.00858296C2.80497 0.0187894 2.9908 0.0447652 3.18984 0.135732C3.45155 0.255335 3.67333 0.447686 3.82874 0.689847C3.94695 0.874029 3.99894 1.05432 4.0279 1.18487C4.0525 1.29575 4.07045 1.42175 4.08515 1.52494C4.08614 1.53189 4.08711 1.53873 4.08807 1.54545L4.43872 4.00001L20.0597 4C20.2018 3.99995 20.3657 3.9999 20.5079 4.01229C20.6678 4.02624 20.9081 4.06244 21.1511 4.20406C21.4582 4.38306 21.6918 4.66532 21.8102 5.00052C21.9038 5.26571 21.8944 5.50852 21.8782 5.66825C21.8638 5.81024 21.833 5.97125 21.8064 6.11082L20.4714 13.1194C20.3887 13.5537 20.3166 13.9323 20.2329 14.2435C20.1438 14.5749 20.0249 14.8978 19.8159 15.2013C19.5003 15.6598 19.0633 16.0213 18.5539 16.2456C18.2167 16.3941 17.8772 16.4505 17.535 16.476C17.2136 16.5 16.8282 16.5 16.3861 16.5H7.75873C7.29386 16.5 6.88978 16.5 6.55391 16.4742C6.19707 16.4468 5.84288 16.3864 5.49387 16.2261C4.96847 15.9847 4.52401 15.5966 4.21399 15.1085C4.00806 14.7843 3.90043 14.4415 3.82517 14.0916C3.75433 13.7623 3.69987 13.3619 3.63722 12.9013L2.58101 5.13812L2.1327 2.00001H1C0.447715 2.00001 0 1.5523 0 1.00001C0 0.447726 0.447715 1.11611e-05 1 1.11611e-05H2.30616C2.31296 1.11611e-05 2.31987 8.4193e-06 2.32688 5.67748e-06C2.43112 -3.49729e-05 2.55839 -8.46833e-05 2.67163 0.00858296ZM4.7167 6.00001L5.61419 12.5966C5.683 13.1023 5.7277 13.4258 5.78045 13.671C5.83057 13.904 5.87359 13.9911 5.90221 14.0362C6.00555 14.1989 6.1537 14.3282 6.32884 14.4087C6.37734 14.431 6.46944 14.4619 6.70706 14.4801C6.95716 14.4993 7.28371 14.5 7.79411 14.5H16.352C16.8381 14.5 17.1481 14.4994 17.386 14.4816C17.6114 14.4648 17.7001 14.4363 17.748 14.4152C17.9178 14.3405 18.0634 14.2199 18.1686 14.0671C18.1983 14.0241 18.2429 13.9422 18.3016 13.724C18.3635 13.4936 18.4222 13.1892 18.5131 12.7117L19.7915 6.00001H4.7167ZM6 20C6 18.8954 6.89543 18 8 18C9.10457 18 10 18.8954 10 20C10 21.1046 9.10457 22 8 22C6.89543 22 6 21.1046 6 20ZM14 20C14 18.8954 14.8954 18 16 18C17.1046 18 18 18.8954 18 20C18 21.1046 17.1046 22 16 22C14.8954 22 14 21.1046 14 20Z" fill="currentColor"/>
</svg>
