<svg xmlns="http://www.w3.org/2000/svg" viewBox="0 0 18 22" fill="none">
<path id="Icon" fill-rule="evenodd" clip-rule="evenodd" d="M4.16146 8.6011e-07H13.8385C14.3657 -1.70213e-05 14.8205 -3.25181e-05 15.195 0.0305712C15.5904 0.0628723 15.9836 0.134188 16.362 0.326982C16.9265 0.614602 17.3854 1.07354 17.673 1.63803C17.8658 2.01641 17.9371 2.40963 17.9694 2.80497C18 3.17954 18 3.6343 18 4.16144V17.8386C18 18.3657 18 18.8205 17.9694 19.195C17.9371 19.5904 17.8658 19.9836 17.673 20.362C17.3854 20.9265 16.9265 21.3854 16.362 21.673C15.9836 21.8658 15.5904 21.9371 15.195 21.9694C14.8205 22 14.3657 22 13.8386 22H4.16144C3.6343 22 3.17954 22 2.80497 21.9694C2.40963 21.9371 2.01641 21.8658 1.63803 21.673C1.07355 21.3854 0.614603 20.9265 0.326982 20.362C0.134188 19.9836 0.0628722 19.5904 0.0305712 19.195C-3.25181e-05 18.8205 -1.70213e-05 18.3657 8.6011e-07 17.8385V4.16146C-1.70213e-05 3.63431 -3.25181e-05 3.17955 0.0305712 2.80497C0.0628723 2.40963 0.134188 2.01641 0.326982 1.63803C0.614602 1.07354 1.07354 0.614602 1.63803 0.326982C2.01641 0.134188 2.40963 0.0628723 2.80497 0.0305712C3.17955 -3.25181e-05 3.63431 -1.70213e-05 4.16146 8.6011e-07ZM2.96784 2.02393C2.69617 2.04612 2.59546 2.0838 2.54601 2.109C2.35785 2.20487 2.20487 2.35785 2.109 2.54601C2.0838 2.59546 2.04612 2.69617 2.02393 2.96784C2.00078 3.25118 2 3.62345 2 4.2V17.8C2 18.3766 2.00078 18.7488 2.02393 19.0322C2.04612 19.3038 2.0838 19.4046 2.109 19.454C2.20487 19.6422 2.35785 19.7951 2.54601 19.891C2.59546 19.9162 2.69617 19.9539 2.96784 19.9761C3.25117 19.9992 3.62345 20 4.2 20H13.8C14.3766 20 14.7488 19.9992 15.0322 19.9761C15.3038 19.9539 15.4045 19.9162 15.454 19.891C15.6422 19.7951 15.7951 19.6422 15.891 19.454C15.9162 19.4045 15.9539 19.3038 15.9761 19.0322C15.9992 18.7488 16 18.3766 16 17.8V4.2C16 3.62345 15.9992 3.25117 15.9761 2.96784C15.9539 2.69617 15.9162 2.59546 15.891 2.54601C15.7951 2.35785 15.6422 2.20487 15.454 2.109C15.4045 2.0838 15.3038 2.04612 15.0322 2.02393C14.7488 2.00078 14.3766 2 13.8 2H4.2C3.62345 2 3.25117 2.00078 2.96784 2.02393ZM7.5 16.5C7.5 15.6716 8.17157 15 9 15C9.82843 15 10.5 15.6716 10.5 16.5C10.5 17.3284 9.82843 18 9 18C8.17157 18 7.5 17.3284 7.5 16.5Z" fill="currentColor"/>
</svg>
