<?xml version="1.0" encoding="UTF-8"?> <svg xmlns="http://www.w3.org/2000/svg" width="396" height="114" viewBox="0 0 396 114" fill="none"><g clip-path="url(#clip0_13936_102292)"><path d="M84.8512 21.954C84.7713 21.4723 84.3732 21.1071 83.8865 21.0689L75.0358 20.4051L68.5129 13.9176C67.8668 13.2715 66.61 13.4662 66.1143 13.6078L62.8396 14.661C60.8482 8.97007 57.3788 3.77474 51.2807 3.77474H50.7673C49.0237 1.50012 46.9084 0.5 45.0233 0.5C30.818 0.5 24.0295 18.2633 21.8965 27.2909L11.9572 30.3709C8.8772 31.3357 8.77984 31.433 8.41697 34.336C8.06294 36.5398 0 98.9015 0 98.9015L62.8396 110.673L96.8881 103.309C96.8881 103.309 84.9662 22.5027 84.8512 21.954ZM59.2993 15.6966L53.989 17.3162C53.989 16.9445 53.989 16.5728 53.989 16.1656C54.0583 13.2548 53.6395 10.3529 52.7499 7.58052C55.8918 8.00535 57.9895 11.581 59.2993 15.6966ZM48.8556 8.30627C49.9234 11.382 50.4126 14.6289 50.2982 17.8827C50.2982 18.0951 50.2982 18.2987 50.2982 18.5022L39.3146 21.892C41.4299 13.776 45.3861 9.79318 48.8556 8.30627ZM44.6338 4.31463C45.2897 4.3273 45.9259 4.54041 46.4571 4.92532C41.899 7.06718 37.0223 12.4661 34.9512 23.2462L26.2687 25.9014C28.6938 17.7145 34.429 4.31463 44.6338 4.31463Z" fill="#95BF47"></path><path d="M83.8951 21.059L75.0444 20.3952L68.5215 13.9077C68.2767 13.6807 67.9674 13.5353 67.6364 13.4917L62.8394 110.672L96.879 103.308C96.879 103.308 84.966 22.5017 84.8509 21.9529C84.7755 21.4707 84.3812 21.102 83.8951 21.059Z" fill="#5E8E3E"></path><path d="M51.2803 39.8674L47.0762 52.3557C44.525 51.1066 41.7296 50.4357 38.8894 50.3908C32.2779 50.3908 31.9505 54.5418 31.9505 55.5862C31.9505 61.286 46.8196 63.4721 46.8196 76.8277C46.8196 87.3423 40.155 94.1042 31.1628 94.1042C20.3738 94.1042 14.8599 87.3954 14.8599 87.3954L17.7452 77.8544C17.7452 77.8544 23.4184 82.7223 28.1978 82.7223C29.3585 82.7783 30.491 82.3535 31.3284 81.5479C32.1659 80.7423 32.6342 79.6271 32.6231 78.4651C32.6231 71.0217 20.4269 70.6942 20.4269 58.4715C20.4269 48.1782 27.8084 38.2212 42.7217 38.2212C48.4392 38.2212 51.2803 39.8674 51.2803 39.8674Z" fill="white"></path><path d="M136.574 63.2779C133.176 61.437 131.432 59.8793 131.432 57.7463C131.432 55.0291 133.857 53.3209 137.627 53.3209C140.503 53.3877 143.337 54.0129 145.974 55.1619L149.089 45.6386C149.089 45.6386 146.23 43.4082 137.84 43.4082C126.148 43.4082 118.05 50.0993 118.05 59.5164C118.05 64.8268 121.829 68.9246 126.9 71.8365C130.972 74.1642 132.432 75.8104 132.432 78.2355C132.432 80.6606 130.361 82.8113 126.564 82.8113C122.74 82.6548 118.996 81.6608 115.598 79.8994L112.297 89.405C112.297 89.405 117.218 92.7063 125.493 92.7063C137.521 92.7063 146.159 86.7852 146.159 76.1202C146.177 70.3584 141.814 66.2871 136.574 63.2779Z" fill="black"></path><path d="M184.492 43.2927C178.571 43.2927 173.916 46.1072 170.331 50.3732L170.137 50.2758L175.243 23.4053H161.897L148.895 91.8031H162.286L166.711 68.4197C168.482 59.569 173.013 54.1613 177.288 54.1613C180.297 54.1613 181.457 56.1969 181.457 59.1088C181.455 61.0968 181.259 63.0798 180.872 65.0299L175.828 91.8031H189.219L194.458 64.1537C195.038 61.276 195.364 58.3529 195.432 55.4181C195.458 47.8508 191.484 43.2927 184.492 43.2927Z" fill="black"></path><path d="M225.692 43.293C209.583 43.293 198.918 57.8434 198.918 74.049C198.918 84.4308 205.317 92.7681 217.354 92.7681C233.17 92.7681 243.836 78.6071 243.836 62.0121C243.871 52.418 238.242 43.293 225.692 43.293ZM219.098 82.4836C214.54 82.4836 212.602 78.6071 212.602 73.7569C212.602 66.0922 216.576 53.5774 223.851 53.5774C228.604 53.5774 230.152 57.6487 230.152 61.6315C230.188 69.8803 226.214 82.4925 219.133 82.4925L219.098 82.4836Z" fill="black"></path><path d="M278.113 43.293C269.077 43.293 263.952 51.2586 263.952 51.2586H263.749L264.527 44.0807H252.694C252.11 48.9308 251.048 56.3034 249.977 61.8351L240.666 110.823H254.013L257.695 91.0334H257.987C257.987 91.0334 260.739 92.8035 265.846 92.8035C281.565 92.8035 291.85 76.6953 291.85 60.4013C291.894 51.3471 287.911 43.293 278.113 43.293ZM265.306 82.6784C263.291 82.7089 261.33 82.0218 259.775 80.7401L261.978 68.2252C263.527 59.8791 267.899 54.3563 272.555 54.3563C276.626 54.3563 277.865 58.1355 277.865 61.7289C277.91 70.3583 272.776 82.6784 265.306 82.6784Z" fill="black"></path><path d="M311.003 24.0861C308.951 24.0787 306.982 24.8973 305.541 26.3574C304.099 27.8175 303.305 29.7964 303.338 31.8481C303.338 35.8221 305.861 38.5392 309.64 38.5392H309.835C311.934 38.636 313.979 37.8542 315.479 36.3815C316.979 34.9088 317.797 32.8782 317.738 30.7772C317.835 28.9669 317.155 27.2014 315.869 25.9238C314.583 24.6461 312.813 23.9777 311.003 24.0861Z" fill="black"></path><path d="M292.284 91.8028H305.666L314.791 44.3633H301.302L292.284 91.8028Z" fill="black"></path><path d="M348.84 44.2655H339.529L340.016 42.0351C340.795 37.4771 343.512 33.3969 347.982 33.3969C349.43 33.4012 350.87 33.6311 352.248 34.0784L354.903 23.5992C354.903 23.5992 352.575 22.431 347.628 22.431C342.872 22.2912 338.225 23.8613 334.529 26.8563C329.971 30.7329 327.838 36.3619 326.767 41.9909L326.377 44.2213H320.182L318.243 54.311H324.439L317.358 91.7581H330.749L337.83 54.311H347.043L348.84 44.2655Z" fill="black"></path><path d="M381.047 44.3633C381.047 44.3633 372.674 65.4455 368.921 76.9602H368.727C368.47 73.2518 365.425 44.3633 365.425 44.3633H351.371L359.425 87.9262C359.637 88.6782 359.532 89.4846 359.133 90.1565C357.388 93.3853 354.893 96.1475 351.857 98.2106C349.534 99.8371 346.984 101.113 344.29 101.999L347.972 113.354C352.874 112.053 357.375 109.553 361.071 106.079C367.187 100.352 372.807 91.5284 378.631 79.5269L395.022 44.4075L381.047 44.3633Z" fill="black"></path></g><defs><clipPath id="clip0_13936_102292"><rect width="396" height="114" fill="white"></rect></clipPath></defs></svg> 