<svg width="401" height="91" viewBox="0 0 401 91" fill="none" xmlns="http://www.w3.org/2000/svg">
<path fill-rule="evenodd" clip-rule="evenodd" d="M324.598 19.9116C323.583 31.7893 321.106 43.3922 317.789 54.8092C315.652 62.1668 313.27 69.4613 310.727 76.6894C309.483 80.2229 307.539 83.5385 304.007 85.3665C298.518 88.2081 292.189 85.5998 289.791 79.4837C288.735 76.7882 287.954 73.9736 287.212 71.1698C283.908 58.691 273.009 52.5272 262.234 52.5869C248.925 52.6596 239.846 58.9732 233.748 70.3562C231.889 73.8266 229.921 77.2618 227.71 80.5155C224.619 85.0647 220.336 87.5402 214.612 86.8886C208.916 86.2406 205.223 82.527 204.345 76.8542C203.426 70.9244 204.227 65.1172 205.472 59.3692C208.746 44.2556 212.104 29.1594 215.539 14.0814C217.496 5.48985 222.95 1.25611 231.725 0.818621C242.113 0.30144 249.103 5.6949 254.843 13.5012C256.602 15.8916 258.325 18.3351 260.328 20.5142C264.2 24.7277 269.788 25.1303 274.391 21.7682C280.318 17.439 286.17 13.0027 292.205 8.82953C297.618 5.08723 303.448 2.32866 310.299 2.35896C318.664 2.3959 323.877 9.31226 324.582 16.3893C324.698 17.5523 324.598 18.7369 324.598 19.9116ZM72.9155 76.497C73.9787 70.6448 74.928 64.6752 76.1655 58.7683C78.3574 48.3079 80.4643 37.8169 83.1047 27.4717C84.9947 20.0671 87.2582 12.6664 91.7744 6.35461C94.0611 3.15891 96.8407 0.58329 101.185 0.79676C103.989 0.934838 106.207 2.19321 108.096 4.15765C109.977 6.11446 111.569 8.4207 113.649 10.1094C118.258 13.8515 125.008 13.5664 130.214 9.72863C132.952 7.71083 135.545 5.45329 138.425 3.67988C143.725 0.414716 150.509 2.1373 153.875 7.43043C156.513 11.5796 156.13 15.824 153.509 19.7355C150.203 24.6694 146.55 29.359 143.16 34.2362C138.934 40.3146 138.156 46.7543 141.487 53.5726C143.458 57.607 145.48 61.6294 147.179 65.7853C149.476 71.4021 150.456 77.181 147.506 82.9333C143.147 91.4344 134.388 92.9367 127.612 86.3018C124.331 83.09 121.332 79.5758 118.012 76.4093C113.004 71.6333 107.638 71.66 102.494 76.3826C99.0209 79.5724 95.8388 83.1078 92.2507 86.1489C86.2318 91.2501 77.6317 89.3243 74.2342 82.1942C73.4514 80.5508 73.3702 78.5576 72.9155 76.497M354.141 90.3794C346.343 90.6581 338.698 90.1214 331.949 85.598C327.877 82.8681 324.89 79.2686 324.646 74.0075C324.534 71.5896 325.574 69.2903 327.824 67.4378C330.94 64.7526 334.021 63.6137 338.089 62.8347C340.937 62.2887 343.794 61.6578 346.54 60.7377C352.277 58.8142 353.637 53.2854 349.627 48.6223C348.718 47.5653 347.697 46.6072 346.72 45.6102C342.268 41.0649 339.104 35.8439 339.415 29.2172C339.534 26.6899 340.15 24.0034 341.243 21.7379C346.531 10.7783 355.436 4.59328 367.05 1.83458C376.624 -0.439357 385.491 1.0141 393.929 5.85798C398.794 8.65088 401.177 13.2764 400.333 18.0494C399.618 22.0931 396.113 24.9375 391.286 25.2478C389.492 25.3631 387.678 25.2694 385.878 25.1748C384.461 25.1009 382.964 24.8965 382.238 26.4534C381.458 28.1248 381.875 29.6686 383.129 31.0613C385.463 33.6532 387.953 36.1458 389.958 38.9856C394.141 44.913 396.737 51.5207 395.742 58.9422C394.662 67.0033 390.708 73.6782 384.536 78.7876C377.199 84.8616 368.724 88.5793 359.321 89.9876C357.613 90.2439 355.868 90.2549 354.141 90.3794M48.1079 0.784633C53.9548 0.881263 60.3828 2.43407 66.3109 5.96277C74.7493 10.9859 75.1924 20.7023 67.1058 26.2808C64.55 28.0437 61.7235 29.4041 59.0118 30.933C54.5785 33.4323 53.6879 36.3203 56.1613 40.8199C57.2322 42.7677 58.4158 44.7049 59.8436 46.3892C66.5907 54.3495 65.0336 64.8007 59.7168 72.4173C53.6149 81.159 44.869 85.7939 34.9618 88.4723C28.4547 90.2318 21.8319 91.262 15.1333 89.5999C8.83297 88.0366 4.38602 84.0063 1.56989 78.2076C-0.778327 73.3727 0.783285 68.4954 5.8175 65.2082C9.57689 62.7538 13.6438 60.788 17.4902 58.4618C19.7862 57.0732 22.0781 55.5943 24.0906 53.8264C27.1197 51.1657 27.247 47.7148 24.8138 44.4738C23.1855 42.3043 21.5003 40.17 20.0009 37.9105C14.8664 30.1767 15.1979 21.3821 20.8169 13.9184C27.0626 5.62247 36.8284 0.747661 48.1079 0.784633M185.772 0.796916C195.513 0.907359 201.724 7.72322 200.297 16.9547C199.14 24.4423 197.484 31.8627 195.82 39.2619C193.776 48.3543 191.787 57.4757 189.235 66.4324C186.683 75.3873 181.305 82.3846 172.428 86.0956C166.062 88.7566 160.067 85.2831 159.378 78.424C159.003 74.6864 158.992 70.7786 159.656 67.0979C161.299 58.0043 163.399 48.9916 165.364 39.9565C167.271 31.1926 169.053 22.3942 171.285 13.7108C172.035 10.7903 173.666 7.93746 175.48 5.48157C178.01 2.05662 181.788 0.633744 185.772 0.796916" fill="#2D2A26"></path>
</svg>
